<?xml version="1.0" encoding="utf-8"?>
<!-- Generator: Adobe Illustrator 18.1.1, SVG Export Plug-In . SVG Version: 6.00 Build 0)  -->
<!DOCTYPE svg PUBLIC "-//W3C//DTD SVG 1.1//EN" "http://www.w3.org/Graphics/SVG/1.1/DTD/svg11.dtd">
<svg version="1.1" id="Layer_1" xmlns="http://www.w3.org/2000/svg" xmlns:xlink="http://www.w3.org/1999/xlink" x="0px" y="0px"
	 viewBox="0 0 149 149" enable-background="new 0 0 149 149" xml:space="preserve">
<polygon fill="#434345" points="149,134 15,0 82,0 149,67 "/>
<g>
	<polygon fill="#434345" points="87.9,0 149,61.1 149,63.9 85.1,0 	"/>
</g>
<g>
	<polygon fill="#434345" points="12.2,0 149,136.8 149,139.7 9.3,0 	"/>
</g>
<g>
	<path fill="#FFFFFF" d="M93.6,19.2c0.1-0.1,0.3-0.1,0.4,0l0.2,0.2c0.1,0.1,0.1,0.3,0.1,0.4l-3.8,9.2l0.1,0.1l9.2-3.9
		c0.1-0.1,0.3,0,0.4,0.1l0.2,0.2c0.1,0.1,0.1,0.3,0,0.4l-7,10.1c-0.1,0.2-0.3,0.2-0.5,0.1l-0.8-0.8c-0.1-0.1-0.1-0.3-0.1-0.4
		l4.7-6.6c0,0,0,0,0,0l-8.1,3.6c-0.1,0.1-0.2,0-0.4-0.1l-0.2-0.2c-0.1-0.1-0.1-0.3-0.1-0.4l3.6-8.2c0,0,0,0-0.1-0.1l-6.6,4.8
		c-0.1,0.1-0.3,0.1-0.4-0.1l-0.8-0.8c-0.2-0.2-0.2-0.4,0.1-0.5L93.6,19.2z"/>
	<path fill="#FFFFFF" d="M99.5,36.3c0.5,0.5,0.9,1.2,0.9,1.2c0.8-0.8,1-1.3,0.3-1.9c-0.6-0.6-1.3-1-1.7-1.2
		c-0.2-0.1-0.2-0.3-0.1-0.5l0.4-0.6c0.1-0.2,0.3-0.2,0.5-0.1c0.1,0.1,1.1,0.5,2,1.5c1.6,1.6,0.8,2.8-0.5,4l-2.7,2.7
		c-0.1,0.1-0.4,0.1-0.5,0l-0.4-0.4c-0.1-0.1-0.1-0.2,0-0.4l0.2-0.5c-0.5,0-1.4-0.1-2.2-0.9c-1-1-1-2.3,0.1-3.3
		C96.7,35,98.2,35,99.5,36.3z M96.9,38.6c0.5,0.5,1.4,0.6,1.8,0.5l0.8-0.8c0-0.1-0.2-0.6-0.7-1.1c-0.6-0.6-1.3-0.7-1.9-0.2
		C96.4,37.5,96.4,38.1,96.9,38.6z"/>
	<path fill="#FFFFFF" d="M107.3,40.2c0.6,0.6,0.9,1.3,0.9,1.5L112,38c0.1-0.1,0.4-0.1,0.5,0l0.7,0.7c0.1,0.1,0.1,0.4,0,0.5l-8.4,8.4
		c-0.1,0.1-0.4,0.1-0.5,0l-0.4-0.4c-0.1-0.1-0.1-0.3,0-0.4l0.3-0.5c0,0-1.3,0.1-2.3-0.9c-1.3-1.3-1.2-3.6,0.3-5.1
		C103.6,38.9,105.9,38.8,107.3,40.2z M103.1,44.5c0.8,0.8,1.8,0.5,2,0.4l2.1-2.1c0,0-0.1-0.8-0.8-1.4c-0.9-0.9-2.2-0.8-3,0.1
		C102.5,42.4,102.3,43.7,103.1,44.5z"/>
	<path fill="#FFFFFF" d="M113.1,46c1.3,1.3,1.3,3.3,0,4.7c-0.1,0.1-0.3,0.2-0.4,0.3c-0.1,0.1-0.3,0.1-0.4,0l-3.5-3.5
		c-0.6,0.7-0.7,2,0.1,2.8c0.5,0.5,1.1,0.7,1.5,0.8c0.2,0.1,0.4,0.1,0.4,0.3l-0.1,0.8c0,0.2-0.1,0.3-0.4,0.3
		c-0.7-0.1-1.7-0.4-2.5-1.2c-1.5-1.5-1.4-3.8,0.1-5.2C109.3,44.7,111.6,44.4,113.1,46z M112.1,49.2c0.6-0.6,0.6-1.7,0-2.3
		c-0.7-0.7-1.7-0.7-2.4-0.2L112.1,49.2z"/>
	<path fill="#FFFFFF" d="M119.2,56c0.5,0.5,0.9,1.2,0.9,1.2c0.8-0.8,1-1.3,0.3-1.9c-0.6-0.6-1.3-1-1.7-1.2c-0.2-0.1-0.2-0.3-0.1-0.5
		L119,53c0.1-0.2,0.3-0.2,0.5-0.1c0.1,0.1,1.1,0.5,2,1.5c1.6,1.6,0.8,2.8-0.5,4l-2.7,2.7c-0.1,0.1-0.4,0.1-0.5,0l-0.4-0.4
		c-0.1-0.1-0.1-0.2,0-0.4l0.2-0.5c-0.5,0-1.4-0.1-2.2-0.9c-1-1-1-2.3,0.1-3.3C116.4,54.7,117.9,54.7,119.2,56z M116.6,58.3
		c0.5,0.5,1.4,0.6,1.8,0.5l0.8-0.8c0-0.1-0.2-0.6-0.7-1.1c-0.6-0.6-1.3-0.7-1.9-0.2C116.1,57.2,116.1,57.9,116.6,58.3z"/>
	<path fill="#FFFFFF" d="M124,59.3l-0.5-0.5c-0.1-0.1-0.1-0.4,0-0.5l0.6-0.6c0.1-0.1,0.3-0.1,0.5,0l0.5,0.5l1.4-1.4
		c0.1-0.1,0.4-0.1,0.5,0l0.7,0.7c0.1,0.1,0.1,0.3,0,0.5l-1.4,1.4l1.3,1.3c0.1,0.1,0.1,0.3,0,0.5l-0.6,0.6c-0.1,0.1-0.3,0.1-0.5,0
		l-1.3-1.3l-2.5,2.5c-0.4,0.4-0.3,0.7-0.1,0.9c0.3,0.3,0.8,0.5,1,0.5c0.2,0.1,0.2,0.2,0.2,0.4l-0.3,0.8c-0.1,0.2-0.2,0.3-0.4,0.2
		c-0.2-0.1-1.3-0.5-1.9-1.1c-1-1-0.7-1.9,0.2-2.8L124,59.3z"/>
	<path fill="#FFFFFF" d="M56.1,8.3c1.3,1.3,1.8,2.6,1.9,4.3c0,0.2-0.1,0.4-0.3,0.4l-1.1,0c-0.2,0-0.3-0.1-0.3-0.3
		c-0.1-1.1-0.6-2.3-1.3-3.1c-1.8-1.8-4.7-1.7-6.5,0.1c-1.8,1.8-1.9,4.7-0.1,6.5c0.9,0.9,1.9,1.2,3,1.3c0.2,0,0.3,0.2,0.3,0.3l0,1.2
		c0,0.2-0.2,0.3-0.4,0.3c-1.7,0-3.2-0.7-4.3-1.9c-2.5-2.5-2.6-6.6,0-9.2C49.5,5.7,53.6,5.7,56.1,8.3z"/>
	<path fill="#FFFFFF" d="M58.8,18.6c1.4,1.4,1.3,3.8-0.1,5.2c-1.5,1.5-3.8,1.5-5.3,0.1c-1.4-1.4-1.3-3.8,0.1-5.3
		C55,17.3,57.4,17.2,58.8,18.6z M54.6,22.9c0.8,0.8,2.2,0.7,3-0.2c0.9-0.9,0.9-2.2,0.1-3s-2.1-0.7-3,0.1
		C53.8,20.7,53.8,22.1,54.6,22.9z"/>
	<path fill="#FFFFFF" d="M62.1,22.6c0.1-0.1,0.4-0.1,0.5,0l0.4,0.4c0.1,0.1,0.1,0.2,0.1,0.4l-0.3,0.6c0.2,0,1.4,0,2.4,1
		c0.7,0.7,1,1.6,0.8,2.5c0.3,0,1.7,0.1,2.7,1c1.6,1.6,1,3.2-0.3,4.5l-2.6,2.6c-0.1,0.1-0.3,0.1-0.5,0l-0.7-0.7
		c-0.1-0.1-0.1-0.4,0-0.5l2.6-2.6c0.8-0.8,0.9-1.6,0.2-2.3c-0.8-0.8-1.8-0.7-1.9-0.7c-0.1,0.1-0.3,0.4-0.6,0.6l-2.6,2.6
		c-0.1,0.1-0.4,0.1-0.5,0L61,31.2c-0.1-0.1-0.1-0.4,0-0.5l2.6-2.6c0.8-0.8,0.9-1.6,0.2-2.3c-0.8-0.8-1.8-0.6-2-0.5l-3.1,3.1
		c-0.1,0.1-0.4,0.1-0.5,0l-0.7-0.7c-0.1-0.1-0.1-0.4,0-0.5L62.1,22.6z"/>
	<path fill="#FFFFFF" d="M74.4,34.2c1.3,1.3,1.3,3.3,0,4.7c-0.1,0.1-0.3,0.2-0.4,0.3c-0.1,0.1-0.3,0.1-0.4,0l-3.5-3.5
		c-0.6,0.7-0.7,2,0.1,2.8c0.5,0.5,1.1,0.7,1.5,0.8c0.2,0.1,0.4,0.1,0.4,0.3L72,40.5c0,0.2-0.1,0.3-0.4,0.3c-0.7-0.1-1.7-0.4-2.5-1.2
		c-1.5-1.5-1.3-3.8,0.1-5.2C70.6,32.9,72.9,32.7,74.4,34.2z M73.5,37.5c0.6-0.6,0.6-1.7,0-2.3c-0.7-0.7-1.7-0.7-2.4-0.2L73.5,37.5z"
		/>
	<path fill="#FFFFFF" d="M80.4,40.2c0.6,0.6,0.9,1.3,0.9,1.5l3.7-3.7c0.1-0.1,0.4-0.1,0.5,0l0.7,0.7c0.1,0.1,0.1,0.4,0,0.5l-8.4,8.4
		c-0.1,0.1-0.4,0.1-0.5,0L77,47.2c-0.1-0.1-0.1-0.3,0-0.4l0.3-0.5c0,0-1.3,0.1-2.3-0.9c-1.3-1.3-1.2-3.6,0.3-5.1
		C76.7,38.9,79,38.8,80.4,40.2z M76.2,44.5c0.8,0.8,1.8,0.5,2,0.4l2.1-2.1c0,0-0.1-0.8-0.8-1.4c-0.9-0.9-2.2-0.8-3,0.1
		C75.5,42.4,75.4,43.6,76.2,44.5z"/>
	<path fill="#FFFFFF" d="M83.4,44.1c0.1-0.2,0.4-0.3,0.5-0.1l0.8,0.8c0.1,0.1,0.1,0.2,0.1,0.4l-1.8,5l0,0l4.9-1.9
		c0.2-0.1,0.3,0,0.4,0.1l0.7,0.7c0.2,0.2,0.1,0.5-0.1,0.5l-12.3,4.5c-0.1,0-0.3,0-0.4-0.1l-0.8-0.8c-0.2-0.2-0.1-0.5,0.1-0.6
		l5.4-1.9L83.4,44.1z"/>
	<path fill="#FFFFFF" d="M97.1,50c0.1-0.1,0.4-0.1,0.5,0l0.8,0.8c0.1,0.1,0.1,0.4,0,0.5l-3.6,3.6l4.7,4.7l3.6-3.6
		c0.1-0.1,0.3-0.1,0.5,0l0.8,0.8c0.1,0.1,0.1,0.4,0,0.5L96,65.7c-0.1,0.1-0.4,0.1-0.5,0l-0.8-0.8c-0.1-0.1-0.1-0.4,0-0.5l3.7-3.7
		L93.7,56L90,59.7c-0.1,0.1-0.3,0.1-0.5,0l-0.8-0.8c-0.1-0.1-0.1-0.4,0-0.5L97.1,50z"/>
	<path fill="#FFFFFF" d="M102.4,66.2c0.5,0.5,0.9,1.2,0.9,1.2c0.8-0.8,1-1.3,0.3-1.9c-0.6-0.6-1.3-1-1.7-1.2
		c-0.2-0.1-0.2-0.3-0.1-0.5l0.4-0.6c0.1-0.2,0.3-0.2,0.5-0.1c0.1,0.1,1.1,0.5,2,1.5c1.6,1.6,0.8,2.8-0.5,4l-2.7,2.7
		c-0.1,0.1-0.4,0.1-0.5,0l-0.4-0.4c-0.1-0.1-0.1-0.2,0-0.4l0.2-0.5c-0.5,0-1.4-0.1-2.2-0.9c-1-1-1-2.3,0.1-3.3
		C99.7,64.9,101.1,64.9,102.4,66.2z M99.8,68.5c0.5,0.5,1.4,0.6,1.8,0.5l0.8-0.8c0-0.1-0.2-0.6-0.7-1.1c-0.6-0.6-1.3-0.7-1.9-0.2
		C99.4,67.4,99.3,68,99.8,68.5z"/>
	<path fill="#FFFFFF" d="M110.4,70.2c0.8,0.8,1.1,1.7,0.9,2.8c0,0.2-0.2,0.3-0.4,0.3l-0.8,0c-0.3,0-0.3-0.2-0.3-0.4
		c0-0.5-0.1-1.1-0.5-1.5c-0.8-0.8-2.2-0.8-3,0.1c-0.9,0.9-0.9,2.2-0.1,3c0.6,0.6,1.2,0.6,1.8,0.6c0.2,0,0.3,0.1,0.4,0.3l0.1,0.6
		c0,0.2-0.1,0.4-0.3,0.4c-1.1,0.2-2.2,0-3-0.9c-1.4-1.4-1.5-3.8,0-5.3C106.6,68.7,109,68.8,110.4,70.2z"/>
	<path fill="#FFFFFF" d="M117.1,70c0.1-0.1,0.4-0.1,0.5,0l0.7,0.7c0.1,0.1,0.1,0.4,0,0.5l-5.5,5.5l3.8,0.2c0.2,0,0.3,0,0.5,0.2
		L118,78c0.2,0.2,0,0.5-0.2,0.5l-4-0.2l0,5c0,0.2-0.3,0.4-0.5,0.2l-1-1c-0.1-0.1-0.1-0.2-0.1-0.3l0.1-4.7l-2.2,2.2
		c-0.1,0.1-0.4,0.1-0.5,0l-0.7-0.7c-0.1-0.1-0.1-0.4,0-0.5L117.1,70z"/>
	<path fill="#FFFFFF" d="M126.3,79.2c0.1-0.1,0.3-0.1,0.5,0l2.9,2.9c2.5,2.5,2.5,6.5,0,8.9c-2.5,2.5-6.5,2.5-8.9,0l-2.9-2.9
		c-0.1-0.1-0.1-0.3,0-0.5L126.3,79.2z M121.8,89.6c1.9,1.9,4.6,1.9,6.5,0c1.9-1.9,1.9-4.6,0-6.5l-1.7-1.7l-6.5,6.5L121.8,89.6z"/>
	<path fill="#FFFFFF" d="M131.4,95.2c0.5,0.5,0.9,1.2,0.9,1.2c0.8-0.8,1-1.3,0.3-1.9c-0.6-0.6-1.3-1-1.7-1.2
		c-0.2-0.1-0.2-0.3-0.1-0.5l0.4-0.6c0.1-0.2,0.3-0.2,0.5-0.1c0.1,0,1.1,0.5,2.1,1.5c1.6,1.6,0.8,2.8-0.5,4l-2.7,2.7
		c-0.1,0.1-0.4,0.1-0.5,0l-0.4-0.4c-0.1-0.1-0.1-0.2,0-0.4l0.2-0.5c-0.5,0-1.4-0.1-2.2-0.9c-1-1-1-2.3,0.1-3.3
		C128.6,93.8,130.1,93.9,131.4,95.2z M128.8,97.5c0.5,0.5,1.4,0.6,1.8,0.5l0.8-0.8c0-0.1-0.2-0.6-0.7-1.1c-0.6-0.6-1.3-0.7-1.9-0.2
		C128.4,96.3,128.3,97,128.8,97.5z"/>
	<path fill="#FFFFFF" d="M136,96.7c0.1-0.2,0.4-0.3,0.5-0.1l0.8,0.8c0.1,0.1,0.1,0.2,0.1,0.4l-1.8,5l0,0l4.9-1.9
		c0.2-0.1,0.3,0,0.4,0.1l0.7,0.7c0.2,0.2,0.1,0.5-0.1,0.5l-12.3,4.5c-0.1,0-0.3,0-0.4-0.1l-0.8-0.8c-0.2-0.2-0.1-0.5,0.1-0.6
		l5.4-1.9L136,96.7z"/>
</g>
</svg>
