<?xml version="1.0" encoding="utf-8"?>
<!-- Generator: Adobe Illustrator 18.1.1, SVG Export Plug-In . SVG Version: 6.00 Build 0)  -->
<!DOCTYPE svg PUBLIC "-//W3C//DTD SVG 1.1//EN" "http://www.w3.org/Graphics/SVG/1.1/DTD/svg11.dtd">
<svg version="1.1" id="Layer_1" xmlns="http://www.w3.org/2000/svg" xmlns:xlink="http://www.w3.org/1999/xlink" x="0px" y="0px"
	 viewBox="0 0 149 149" enable-background="new 0 0 149 149" xml:space="preserve">
<polygon fill="#FFFFFF" points="134,0 0,134 0,67 67,0 "/>
<g>
	<polygon fill="#FFFFFF" points="0,61.1 61.1,0 63.9,0 0,63.9 	"/>
</g>
<g>
	<polygon fill="#FFFFFF" points="0,136.8 136.8,0 139.7,0 0,139.7 	"/>
</g>
<g>
	<path fill="#434345" d="M19.2,55.4c-0.1-0.1-0.1-0.3,0-0.4l0.2-0.2c0.1-0.1,0.3-0.1,0.4-0.1l9.2,3.8l0.1-0.1l-3.9-9.2
		c-0.1-0.1,0-0.3,0.1-0.4l0.2-0.2c0.1-0.1,0.3-0.1,0.4,0l10.1,7c0.2,0.1,0.2,0.3,0.1,0.5l-0.8,0.8C35.2,57,35,57,34.9,57l-6.6-4.7
		l0,0l3.6,8.1c0.1,0.1,0,0.2-0.1,0.4L31.6,61c-0.1,0.1-0.3,0.1-0.4,0.1L23,57.5c0,0,0,0-0.1,0.1l4.8,6.6c0.1,0.1,0.1,0.3-0.1,0.4
		l-0.8,0.8c-0.2,0.2-0.4,0.2-0.5-0.1L19.2,55.4z"/>
	<path fill="#434345" d="M36.3,49.5c0.5-0.5,1.2-0.9,1.2-0.9c-0.8-0.8-1.3-1-1.9-0.3c-0.6,0.6-1,1.3-1.2,1.7
		c-0.1,0.2-0.3,0.2-0.5,0.1l-0.6-0.4c-0.2-0.1-0.2-0.3-0.1-0.5c0.1-0.1,0.5-1.1,1.5-2c1.6-1.6,2.8-0.8,4,0.5l2.7,2.7
		c0.1,0.1,0.1,0.4,0,0.5L41,51.3c-0.1,0.1-0.2,0.1-0.4,0l-0.5-0.2c0,0.5-0.1,1.4-0.9,2.2c-1,1-2.3,1-3.3-0.1
		C35,52.3,35,50.8,36.3,49.5z M38.6,52.1c0.5-0.5,0.6-1.4,0.5-1.8l-0.8-0.8c-0.1,0-0.6,0.2-1.1,0.7c-0.6,0.6-0.7,1.3-0.2,1.9
		C37.5,52.6,38.1,52.6,38.6,52.1z"/>
	<path fill="#434345" d="M40.2,41.7c0.6-0.6,1.3-0.9,1.5-0.9L38,37c-0.1-0.1-0.1-0.4,0-0.5l0.7-0.7c0.1-0.1,0.4-0.1,0.5,0l8.4,8.4
		c0.1,0.1,0.1,0.4,0,0.5l-0.4,0.4c-0.1,0.1-0.3,0.1-0.4,0l-0.5-0.3c0,0,0.1,1.3-0.9,2.3c-1.3,1.3-3.6,1.2-5.1-0.3
		C38.9,45.4,38.8,43.1,40.2,41.7z M44.5,45.9c0.8-0.8,0.5-1.8,0.4-2l-2.1-2.1c0,0-0.8,0.1-1.4,0.8c-0.9,0.9-0.8,2.2,0.1,3
		C42.4,46.5,43.7,46.7,44.5,45.9z"/>
	<path fill="#434345" d="M46,35.9c1.3-1.3,3.3-1.3,4.7,0c0.1,0.1,0.2,0.3,0.3,0.4c0.1,0.1,0.1,0.3,0,0.4l-3.5,3.5
		c0.7,0.6,2,0.7,2.8-0.1c0.5-0.5,0.7-1.1,0.8-1.5c0.1-0.2,0.1-0.4,0.3-0.4l0.8,0.1c0.2,0,0.3,0.1,0.3,0.4c-0.1,0.7-0.4,1.7-1.2,2.5
		c-1.5,1.5-3.8,1.4-5.2-0.1C44.7,39.7,44.4,37.4,46,35.9z M49.2,36.9c-0.6-0.6-1.7-0.6-2.3,0c-0.7,0.7-0.7,1.7-0.2,2.4L49.2,36.9z"
		/>
	<path fill="#434345" d="M56,29.8c0.5-0.5,1.2-0.9,1.2-0.9c-0.8-0.8-1.3-1-1.9-0.3c-0.6,0.6-1,1.3-1.2,1.7c-0.1,0.2-0.3,0.2-0.5,0.1
		L53,30c-0.2-0.1-0.2-0.3-0.1-0.5c0.1-0.1,0.5-1.1,1.5-2c1.6-1.6,2.8-0.8,4,0.5l2.7,2.7c0.1,0.1,0.1,0.4,0,0.5l-0.4,0.4
		c-0.1,0.1-0.2,0.1-0.4,0l-0.5-0.2c0,0.5-0.1,1.4-0.9,2.2c-1,1-2.3,1-3.3-0.1C54.7,32.6,54.7,31.1,56,29.8z M58.3,32.4
		c0.5-0.5,0.6-1.4,0.5-1.8L58,29.8c-0.1,0-0.6,0.2-1.1,0.7c-0.6,0.6-0.7,1.3-0.2,1.9C57.2,32.9,57.9,32.9,58.3,32.4z"/>
	<path fill="#434345" d="M59.3,25l-0.5,0.5c-0.1,0.1-0.4,0.1-0.5,0l-0.6-0.6c-0.1-0.1-0.1-0.3,0-0.5l0.5-0.5l-1.4-1.4
		c-0.1-0.1-0.1-0.4,0-0.5l0.7-0.7c0.1-0.1,0.3-0.1,0.5,0l1.4,1.4l1.3-1.3c0.1-0.1,0.3-0.1,0.5,0l0.6,0.6c0.1,0.1,0.1,0.3,0,0.5
		l-1.3,1.3l2.5,2.5c0.4,0.4,0.7,0.3,0.9,0.1c0.3-0.3,0.5-0.8,0.5-1c0.1-0.2,0.2-0.2,0.4-0.2l0.8,0.3c0.2,0.1,0.3,0.2,0.2,0.4
		c-0.1,0.2-0.5,1.3-1.1,1.9c-1,1-1.9,0.7-2.8-0.2L59.3,25z"/>
	<path fill="#434345" d="M8.3,92.9c1.3-1.3,2.6-1.8,4.3-1.9c0.2,0,0.4,0.1,0.4,0.3v1.1c0,0.2-0.1,0.3-0.3,0.3
		c-1.1,0.1-2.3,0.6-3.1,1.3c-1.8,1.8-1.7,4.7,0.1,6.5s4.7,1.9,6.5,0.1c0.9-0.9,1.2-1.9,1.3-3c0-0.2,0.2-0.3,0.3-0.3H19
		c0.2,0,0.3,0.2,0.3,0.4c0,1.7-0.7,3.2-1.9,4.3c-2.5,2.5-6.6,2.6-9.2,0C5.7,99.5,5.7,95.4,8.3,92.9z"/>
	<path fill="#434345" d="M18.6,90.2c1.4-1.4,3.8-1.3,5.2,0.1c1.5,1.5,1.5,3.8,0.1,5.3c-1.4,1.4-3.8,1.3-5.3-0.1
		C17.3,94,17.2,91.6,18.6,90.2z M22.9,94.4c0.8-0.8,0.7-2.2-0.2-3c-0.9-0.9-2.2-0.9-3-0.1s-0.7,2.1,0.1,3
		C20.7,95.2,22.1,95.2,22.9,94.4z"/>
	<path fill="#434345" d="M22.6,86.9c-0.1-0.1-0.1-0.4,0-0.5L23,86c0.1-0.1,0.2-0.1,0.4-0.1l0.6,0.3c0-0.2,0-1.4,1-2.4
		c0.7-0.7,1.6-1,2.5-0.8c0-0.3,0.1-1.7,1-2.7c1.6-1.6,3.2-1,4.5,0.3l2.6,2.6c0.1,0.1,0.1,0.3,0,0.5l-0.7,0.7c-0.1,0.1-0.4,0.1-0.5,0
		l-2.6-2.6c-0.8-0.8-1.6-0.9-2.3-0.2c-0.8,0.8-0.7,1.8-0.7,1.9c0.1,0.1,0.4,0.3,0.6,0.6l2.6,2.6c0.1,0.1,0.1,0.4,0,0.5L31.2,88
		c-0.1,0.1-0.4,0.1-0.5,0l-2.6-2.6c-0.8-0.8-1.6-0.9-2.3-0.2c-0.8,0.8-0.6,1.8-0.5,2l3.1,3.1c0.1,0.1,0.1,0.4,0,0.5l-0.7,0.7
		c-0.1,0.1-0.4,0.1-0.5,0L22.6,86.9z"/>
	<path fill="#434345" d="M34.2,74.6c1.3-1.3,3.3-1.3,4.7,0c0.1,0.1,0.2,0.3,0.3,0.4s0.1,0.3,0,0.4l-3.5,3.5c0.7,0.6,2,0.7,2.8-0.1
		c0.5-0.5,0.7-1.1,0.8-1.5c0.1-0.2,0.1-0.4,0.3-0.4l0.8,0.1c0.2,0,0.3,0.1,0.3,0.4c-0.1,0.7-0.4,1.7-1.2,2.5
		c-1.5,1.5-3.8,1.3-5.2-0.1C32.9,78.4,32.7,76.1,34.2,74.6z M37.5,75.5c-0.6-0.6-1.7-0.6-2.3,0c-0.7,0.7-0.7,1.7-0.2,2.4L37.5,75.5z
		"/>
	<path fill="#434345" d="M40.2,68.6c0.6-0.6,1.3-0.9,1.5-0.9L38,63.9c-0.1-0.1-0.1-0.4,0-0.5l0.7-0.7c0.1-0.1,0.4-0.1,0.5,0l8.4,8.4
		c0.1,0.1,0.1,0.4,0,0.5L47.2,72c-0.1,0.1-0.3,0.1-0.4,0l-0.5-0.3c0,0,0.1,1.3-0.9,2.3c-1.3,1.3-3.6,1.2-5.1-0.3
		C38.9,72.3,38.8,70,40.2,68.6z M44.5,72.8c0.8-0.8,0.5-1.8,0.4-2l-2.1-2.1c0,0-0.8,0.1-1.4,0.8c-0.9,0.9-0.8,2.2,0.1,3
		C42.4,73.5,43.6,73.6,44.5,72.8z"/>
	<path fill="#434345" d="M44.1,65.6c-0.2-0.1-0.3-0.4-0.1-0.5l0.8-0.8c0.1-0.1,0.2-0.1,0.4-0.1l5,1.8l0,0l-1.9-4.9
		c-0.1-0.2,0-0.3,0.1-0.4l0.7-0.7c0.2-0.2,0.5-0.1,0.5,0.1l4.5,12.3c0,0.1,0,0.3-0.1,0.4l-0.8,0.8c-0.2,0.2-0.5,0.1-0.6-0.1L50.9,68
		L44.1,65.6z"/>
	<path fill="#434345" d="M50,51.9c-0.1-0.1-0.1-0.4,0-0.5l0.8-0.8c0.1-0.1,0.4-0.1,0.5,0l3.6,3.6l4.7-4.7L56,45.9
		c-0.1-0.1-0.1-0.3,0-0.5l0.8-0.8c0.1-0.1,0.4-0.1,0.5,0l8.4,8.4c0.1,0.1,0.1,0.4,0,0.5l-0.8,0.8c-0.1,0.1-0.4,0.1-0.5,0l-3.7-3.7
		L56,55.3l3.7,3.7c0.1,0.1,0.1,0.3,0,0.5l-0.8,0.8c-0.1,0.1-0.4,0.1-0.5,0L50,51.9z"/>
	<path fill="#434345" d="M66.2,46.6c0.5-0.5,1.2-0.9,1.2-0.9c-0.8-0.8-1.3-1-1.9-0.3c-0.6,0.6-1,1.3-1.2,1.7
		c-0.1,0.2-0.3,0.2-0.5,0.1l-0.6-0.4c-0.2-0.1-0.2-0.3-0.1-0.5c0.1-0.1,0.5-1.1,1.5-2c1.6-1.6,2.8-0.8,4,0.5l2.7,2.7
		c0.1,0.1,0.1,0.4,0,0.5l-0.4,0.4c-0.1,0.1-0.2,0.1-0.4,0L70,48.2c0,0.5-0.1,1.4-0.9,2.2c-1,1-2.3,1-3.3-0.1
		C64.9,49.3,64.9,47.9,66.2,46.6z M68.5,49.2c0.5-0.5,0.6-1.4,0.5-1.8l-0.8-0.8c-0.1,0-0.6,0.2-1.1,0.7c-0.6,0.6-0.7,1.3-0.2,1.9
		C67.4,49.6,68,49.7,68.5,49.2z"/>
	<path fill="#434345" d="M70.2,38.6c0.8-0.8,1.7-1.1,2.8-0.9c0.2,0,0.3,0.2,0.3,0.4v0.8c0,0.3-0.2,0.3-0.4,0.3
		c-0.5,0-1.1,0.1-1.5,0.5c-0.8,0.8-0.8,2.2,0.1,3c0.9,0.9,2.2,0.9,3,0.1c0.6-0.6,0.6-1.2,0.6-1.8c0-0.2,0.1-0.3,0.3-0.4l0.6-0.1
		c0.2,0,0.4,0.1,0.4,0.3c0.2,1.1,0,2.2-0.9,3c-1.4,1.4-3.8,1.5-5.3,0C68.7,42.4,68.8,40,70.2,38.6z"/>
	<path fill="#434345" d="M70,31.9c-0.1-0.1-0.1-0.4,0-0.5l0.7-0.7c0.1-0.1,0.4-0.1,0.5,0l5.5,5.5l0.2-3.8c0-0.2,0-0.3,0.2-0.5L78,31
		c0.2-0.2,0.5,0,0.5,0.2l-0.2,4h5c0.2,0,0.4,0.3,0.2,0.5l-1,1c-0.1,0.1-0.2,0.1-0.3,0.1l-4.7-0.1l2.2,2.2c0.1,0.1,0.1,0.4,0,0.5
		L79,40.1c-0.1,0.1-0.4,0.1-0.5,0L70,31.9z"/>
	<path fill="#434345" d="M79.2,22.7c-0.1-0.1-0.1-0.3,0-0.5l2.9-2.9c2.5-2.5,6.5-2.5,8.9,0c2.5,2.5,2.5,6.5,0,8.9l-2.9,2.9
		c-0.1,0.1-0.3,0.1-0.5,0L79.2,22.7z M89.6,27.2c1.9-1.9,1.9-4.6,0-6.5s-4.6-1.9-6.5,0l-1.7,1.7l6.5,6.5L89.6,27.2z"/>
	<path fill="#434345" d="M95.2,17.6c0.5-0.5,1.2-0.9,1.2-0.9c-0.8-0.8-1.3-1-1.9-0.3c-0.6,0.6-1,1.3-1.2,1.7
		c-0.1,0.2-0.3,0.2-0.5,0.1l-0.6-0.4C92,17.7,92,17.5,92,17.3c0-0.1,0.5-1.1,1.5-2.1c1.6-1.6,2.8-0.8,4,0.5l2.7,2.7
		c0.1,0.1,0.1,0.4,0,0.5l-0.4,0.4c-0.1,0.1-0.2,0.1-0.4,0L99,19.1c0,0.5-0.1,1.4-0.9,2.2c-1,1-2.3,1-3.3-0.1
		C93.8,20.4,93.9,18.9,95.2,17.6z M97.5,20.2c0.5-0.5,0.6-1.4,0.5-1.8l-0.8-0.8c-0.1,0-0.6,0.2-1.1,0.7c-0.6,0.6-0.7,1.3-0.2,1.9
		C96.3,20.6,97,20.7,97.5,20.2z"/>
	<path fill="#434345" d="M96.7,13c-0.2-0.1-0.3-0.4-0.1-0.5l0.8-0.8c0.1-0.1,0.2-0.1,0.4-0.1l5,1.8l0,0l-1.9-4.9
		c-0.1-0.2,0-0.3,0.1-0.4l0.7-0.7c0.2-0.2,0.5-0.1,0.5,0.1l4.5,12.3c0,0.1,0,0.3-0.1,0.4l-0.8,0.8c-0.2,0.2-0.5,0.1-0.6-0.1
		l-1.9-5.4L96.7,13z"/>
</g>
</svg>
